<svg id="svg" version="1.1" xmlns="http://www.w3.org/2000/svg" xmlns:xlink="http://www.w3.org/1999/xlink" width="400" height="400" viewBox="0, 0, 400,400"><g id="svgg"><path id="path0" d="M163.996 60.350 C 163.061 61.220,163.061 61.236,163.147 88.235 L 163.228 113.733 164.016 114.410 L 164.803 115.088 199.860 115.088 L 234.916 115.088 235.704 114.410 L 236.491 113.733 236.491 87.486 L 236.491 61.238 235.811 60.514 L 235.130 59.789 199.864 59.789 C 165.008 59.789,164.590 59.796,163.996 60.350 M170.213 62.072 C 172.039 62.903,171.574 65.435,169.560 65.634 C 167.265 65.860,166.779 62.764,168.982 61.954 C 169.214 61.868,169.429 61.789,169.460 61.777 C 169.492 61.764,169.831 61.897,170.213 62.072 M176.070 62.652 C 177.127 63.874,176.248 65.684,174.596 65.684 C 173.623 65.684,172.632 64.825,172.632 63.982 C 172.632 62.025,174.802 61.186,176.070 62.652 M181.123 62.533 C 181.781 63.111,181.756 64.626,181.079 65.239 C 179.698 66.489,177.243 64.900,177.943 63.210 C 178.526 61.803,179.947 61.501,181.123 62.533 M233.195 90.456 L 233.267 112.000 199.861 112.000 L 166.456 112.000 166.456 90.573 C 166.456 78.788,166.541 69.061,166.644 68.958 C 166.748 68.854,181.748 68.802,199.978 68.841 L 233.123 68.912 233.195 90.456 M204.408 78.107 C 203.790 78.851,193.404 100.889,193.408 101.447 C 193.417 102.729,194.648 103.344,195.583 102.533 C 196.251 101.952,206.877 79.791,206.877 78.977 C 206.877 77.876,205.115 77.255,204.408 78.107 M183.719 85.215 C 175.034 89.310,175.050 90.351,183.860 94.473 C 189.572 97.146,190.326 97.243,190.547 95.335 C 190.685 94.146,190.121 93.735,185.687 91.791 C 183.447 90.809,181.614 89.916,181.614 89.807 C 181.614 89.699,183.351 88.828,185.474 87.873 C 190.367 85.672,190.596 85.521,190.596 84.505 C 190.596 82.257,189.823 82.336,183.719 85.215 M210.589 83.244 C 208.769 84.519,209.739 85.547,214.947 87.865 C 217.147 88.843,218.947 89.729,218.947 89.833 C 218.947 89.937,217.052 90.880,214.736 91.930 C 210.130 94.018,209.882 94.197,210.015 95.343 C 210.237 97.256,211.007 97.157,216.709 94.477 C 225.518 90.337,225.529 89.315,216.806 85.205 C 211.166 82.547,211.454 82.638,210.589 83.244 M140.539 149.520 C 140.089 149.970,140.332 161.898,140.795 162.075 C 141.470 162.334,258.614 162.270,259.023 162.011 C 259.298 161.837,259.362 160.366,259.304 155.629 L 259.228 149.474 199.977 149.403 C 167.389 149.364,140.642 149.417,140.539 149.520 M148.214 197.504 C 141.621 203.460,138.550 241.069,144.163 247.105 C 145.389 248.423,145.356 248.421,166.053 248.421 C 176.928 248.421,185.825 248.498,185.825 248.592 C 185.825 248.686,183.389 251.370,180.412 254.557 C 157.721 278.850,144.560 294.349,141.323 300.589 C 138.466 306.097,142.442 333.091,146.850 338.111 C 148.878 340.421,143.483 340.211,200.564 340.211 C 256.654 340.211,251.970 340.375,253.758 338.339 C 260.207 330.994,261.408 296.776,255.427 290.795 C 254.891 290.259,254.349 290.246,233.123 290.246 C 221.158 290.246,211.368 290.172,211.368 290.081 C 211.368 289.991,214.002 287.117,217.220 283.695 C 237.430 262.208,249.175 248.199,252.915 241.122 L 254.175 238.737 254.112 232.421 C 253.903 211.589,251.016 198.980,245.974 196.869 C 245.229 196.557,236.704 196.491,197.203 196.491 L 149.335 196.491 148.214 197.504 " stroke="none" fill="#fbfafa" fill-rule="evenodd"></path><path id="path1" d="M186.947 0.151 C 186.716 0.210,184.695 0.394,182.456 0.559 C 180.218 0.725,177.565 0.977,176.561 1.119 C 175.558 1.261,173.600 1.515,172.211 1.685 C 170.821 1.854,168.737 2.172,167.579 2.392 C 166.421 2.612,164.589 2.929,163.509 3.097 C 162.428 3.265,160.786 3.577,159.860 3.791 C 158.933 4.004,156.723 4.505,154.947 4.903 C 150.860 5.819,149.505 6.145,147.930 6.591 C 147.235 6.788,146.098 7.105,145.404 7.297 C 143.877 7.717,142.305 8.191,139.509 9.075 C 138.351 9.441,136.835 9.908,136.140 10.114 C 135.446 10.319,134.751 10.573,134.596 10.679 C 134.442 10.784,133.495 11.126,132.491 11.440 C 127.987 12.846,117.111 17.492,110.175 20.974 C 106.376 22.881,104.125 24.088,102.456 25.113 C 101.916 25.445,101.032 25.934,100.491 26.200 C 99.317 26.777,98.683 27.157,97.492 27.999 C 97.001 28.347,96.521 28.632,96.426 28.632 C 96.331 28.632,95.563 29.074,94.718 29.614 C 93.873 30.154,93.069 30.596,92.930 30.596 C 92.792 30.596,92.636 30.691,92.585 30.807 C 92.533 30.923,91.165 31.892,89.544 32.962 C 85.942 35.337,79.962 39.548,79.579 39.978 C 79.425 40.152,78.604 40.785,77.754 41.387 C 76.905 41.988,76.084 42.617,75.930 42.784 C 75.775 42.951,74.954 43.616,74.105 44.263 C 73.256 44.909,72.308 45.667,71.999 45.947 C 71.689 46.227,70.615 47.144,69.613 47.984 C 68.610 48.824,67.411 49.865,66.947 50.296 C 58.801 57.885,57.885 58.801,50.296 66.947 C 49.865 67.411,48.824 68.610,47.984 69.613 C 47.144 70.615,46.227 71.689,45.947 71.999 C 45.667 72.308,44.909 73.256,44.263 74.105 C 43.616 74.954,42.951 75.775,42.784 75.930 C 42.617 76.084,41.988 76.905,41.387 77.754 C 40.785 78.604,40.152 79.425,39.978 79.579 C 39.548 79.962,35.337 85.942,32.962 89.544 C 31.892 91.165,30.923 92.533,30.807 92.585 C 30.691 92.636,30.596 92.792,30.596 92.930 C 30.596 93.069,30.154 93.873,29.614 94.718 C 29.074 95.563,28.632 96.331,28.632 96.426 C 28.632 96.521,28.347 97.001,27.999 97.492 C 27.157 98.683,26.777 99.317,26.200 100.491 C 25.934 101.032,25.445 101.916,25.113 102.456 C 24.088 104.125,22.881 106.376,20.974 110.175 C 19.245 113.620,18.838 114.477,16.977 118.596 C 15.610 121.620,12.023 130.623,11.440 132.491 C 11.126 133.495,10.784 134.442,10.679 134.596 C 10.573 134.751,10.319 135.446,10.114 136.140 C 9.908 136.835,9.441 138.351,9.075 139.509 C 8.191 142.305,7.717 143.877,7.297 145.404 C 7.105 146.098,6.788 147.235,6.591 147.930 C 6.145 149.505,5.819 150.860,4.903 154.947 C 4.505 156.723,4.004 158.933,3.791 159.860 C 3.577 160.786,3.265 162.428,3.097 163.509 C 2.929 164.589,2.612 166.421,2.392 167.579 C 2.172 168.737,1.854 170.821,1.685 172.211 C 1.515 173.600,1.261 175.558,1.119 176.561 C -0.272 186.401,-0.272 213.599,1.119 223.439 C 1.261 224.442,1.515 226.400,1.685 227.789 C 1.854 229.179,2.172 231.263,2.392 232.421 C 2.612 233.579,2.929 235.411,3.097 236.491 C 3.265 237.572,3.577 239.214,3.791 240.140 C 4.004 241.067,4.505 243.277,4.903 245.053 C 5.819 249.140,6.145 250.495,6.591 252.070 C 6.788 252.765,7.105 253.902,7.297 254.596 C 7.717 256.123,8.191 257.695,9.075 260.491 C 9.441 261.649,9.908 263.165,10.114 263.860 C 10.319 264.554,10.573 265.249,10.679 265.404 C 10.784 265.558,11.126 266.505,11.440 267.509 C 12.846 272.013,17.492 282.889,20.974 289.825 C 22.881 293.624,24.088 295.875,25.113 297.544 C 25.445 298.084,25.934 298.968,26.200 299.509 C 26.777 300.683,27.157 301.317,27.999 302.508 C 28.347 302.999,28.632 303.479,28.632 303.574 C 28.632 303.669,29.074 304.437,29.614 305.282 C 30.154 306.127,30.596 306.931,30.596 307.070 C 30.596 307.208,30.691 307.364,30.807 307.415 C 30.923 307.467,31.892 308.835,32.962 310.456 C 35.337 314.058,39.548 320.038,39.978 320.421 C 40.152 320.575,40.785 321.396,41.387 322.246 C 41.988 323.095,42.617 323.916,42.784 324.070 C 42.951 324.225,43.616 325.046,44.263 325.895 C 44.909 326.744,45.667 327.692,45.947 328.001 C 46.227 328.311,47.144 329.385,47.984 330.387 C 48.824 331.390,49.865 332.589,50.296 333.053 C 57.885 341.199,58.801 342.115,66.947 349.704 C 67.411 350.135,68.610 351.176,69.613 352.016 C 70.615 352.856,71.689 353.773,71.999 354.053 C 72.308 354.333,73.256 355.091,74.105 355.737 C 74.954 356.384,75.775 357.049,75.930 357.216 C 76.084 357.383,76.905 358.012,77.754 358.613 C 78.604 359.215,79.425 359.848,79.579 360.022 C 79.962 360.452,85.942 364.663,89.544 367.038 C 91.165 368.108,92.533 369.077,92.585 369.193 C 92.636 369.309,92.792 369.404,92.930 369.404 C 93.069 369.404,93.873 369.846,94.718 370.386 C 95.563 370.926,96.331 371.368,96.426 371.368 C 96.521 371.368,97.001 371.653,97.492 372.001 C 98.683 372.843,99.317 373.223,100.491 373.800 C 101.032 374.066,101.916 374.555,102.456 374.887 C 104.125 375.912,106.376 377.119,110.175 379.026 C 113.620 380.755,114.477 381.162,118.596 383.023 C 121.620 384.390,130.623 387.977,132.491 388.560 C 133.495 388.874,134.442 389.216,134.596 389.321 C 134.751 389.427,135.446 389.681,136.140 389.886 C 136.835 390.092,138.351 390.559,139.509 390.925 C 142.305 391.809,143.877 392.283,145.404 392.703 C 146.098 392.895,147.235 393.212,147.930 393.409 C 149.505 393.855,150.860 394.181,154.947 395.097 C 156.723 395.495,158.933 395.996,159.860 396.209 C 160.786 396.423,162.428 396.735,163.509 396.903 C 164.589 397.071,166.421 397.388,167.579 397.608 C 168.737 397.828,170.821 398.146,172.211 398.315 C 173.600 398.485,175.558 398.739,176.561 398.881 C 181.907 399.637,187.239 399.860,200.000 399.860 C 212.761 399.860,218.093 399.637,223.439 398.881 C 224.442 398.739,226.400 398.485,227.789 398.315 C 229.179 398.146,231.263 397.828,232.421 397.608 C 233.579 397.388,235.411 397.071,236.491 396.903 C 237.572 396.735,239.214 396.423,240.140 396.209 C 241.067 395.996,243.277 395.495,245.053 395.097 C 249.140 394.181,250.495 393.855,252.070 393.409 C 252.765 393.212,253.902 392.895,254.596 392.703 C 256.123 392.283,257.695 391.809,260.491 390.925 C 261.649 390.559,263.165 390.092,263.860 389.886 C 264.554 389.681,265.249 389.427,265.404 389.321 C 265.558 389.216,266.505 388.874,267.509 388.560 C 272.013 387.154,282.889 382.508,289.825 379.026 C 293.624 377.119,295.875 375.912,297.544 374.887 C 298.084 374.555,298.968 374.066,299.509 373.800 C 300.683 373.223,301.317 372.843,302.508 372.001 C 302.999 371.653,303.479 371.368,303.574 371.368 C 303.669 371.368,304.437 370.926,305.282 370.386 C 306.127 369.846,306.931 369.404,307.070 369.404 C 307.208 369.404,307.364 369.309,307.415 369.193 C 307.467 369.077,308.835 368.108,310.456 367.038 C 314.058 364.663,320.038 360.452,320.421 360.022 C 320.575 359.848,321.396 359.215,322.246 358.613 C 323.095 358.012,323.916 357.383,324.070 357.216 C 324.225 357.049,325.046 356.384,325.895 355.737 C 326.744 355.091,327.692 354.333,328.001 354.053 C 328.311 353.773,329.385 352.856,330.387 352.016 C 331.390 351.176,332.589 350.135,333.053 349.704 C 341.199 342.115,342.115 341.199,349.704 333.053 C 350.135 332.589,351.176 331.390,352.016 330.387 C 352.856 329.385,353.773 328.311,354.053 328.001 C 354.333 327.692,355.091 326.744,355.737 325.895 C 356.384 325.046,357.049 324.225,357.216 324.070 C 357.383 323.916,358.012 323.095,358.613 322.246 C 359.215 321.396,359.848 320.575,360.022 320.421 C 360.452 320.038,364.663 314.058,367.038 310.456 C 368.108 308.835,369.077 307.467,369.193 307.415 C 369.309 307.364,369.404 307.208,369.404 307.070 C 369.404 306.931,369.846 306.127,370.386 305.282 C 370.926 304.437,371.368 303.669,371.368 303.574 C 371.368 303.479,371.653 302.999,372.001 302.508 C 372.843 301.317,373.223 300.683,373.800 299.509 C 374.066 298.968,374.555 298.084,374.887 297.544 C 376.767 294.485,380.520 287.037,383.163 281.123 C 384.469 278.200,388.014 269.259,388.560 267.509 C 388.874 266.505,389.216 265.558,389.321 265.404 C 389.427 265.249,389.681 264.554,389.886 263.860 C 390.092 263.165,390.559 261.649,390.925 260.491 C 391.809 257.695,392.283 256.123,392.703 254.596 C 392.895 253.902,393.212 252.765,393.409 252.070 C 393.855 250.495,394.181 249.140,395.097 245.053 C 395.495 243.277,395.996 241.067,396.209 240.140 C 396.423 239.214,396.735 237.572,396.903 236.491 C 397.071 235.411,397.388 233.579,397.608 232.421 C 397.828 231.263,398.146 229.179,398.315 227.789 C 398.485 226.400,398.739 224.442,398.881 223.439 C 399.637 218.093,399.860 212.761,399.860 200.000 C 399.860 187.239,399.637 181.907,398.881 176.561 C 398.739 175.558,398.485 173.600,398.315 172.211 C 398.146 170.821,397.828 168.737,397.608 167.579 C 397.388 166.421,397.071 164.589,396.903 163.509 C 396.735 162.428,396.423 160.786,396.209 159.860 C 395.996 158.933,395.495 156.723,395.097 154.947 C 394.181 150.860,393.855 149.505,393.409 147.930 C 393.212 147.235,392.895 146.098,392.703 145.404 C 392.283 143.877,391.809 142.305,390.925 139.509 C 390.559 138.351,390.092 136.835,389.886 136.140 C 389.681 135.446,389.427 134.751,389.321 134.596 C 389.216 134.442,388.874 133.495,388.560 132.491 C 388.014 130.741,384.469 121.800,383.163 118.877 C 380.520 112.963,376.767 105.515,374.887 102.456 C 374.555 101.916,374.066 101.032,373.800 100.491 C 373.223 99.317,372.843 98.683,372.001 97.492 C 371.653 97.001,371.368 96.521,371.368 96.426 C 371.368 96.331,370.926 95.563,370.386 94.718 C 369.846 93.873,369.404 93.069,369.404 92.930 C 369.404 92.792,369.309 92.636,369.193 92.585 C 369.077 92.533,368.108 91.165,367.038 89.544 C 364.663 85.942,360.452 79.962,360.022 79.579 C 359.848 79.425,359.215 78.604,358.613 77.754 C 358.012 76.905,357.383 76.084,357.216 75.930 C 357.049 75.775,356.384 74.954,355.737 74.105 C 355.091 73.256,354.333 72.308,354.053 71.999 C 353.773 71.689,352.856 70.615,352.016 69.613 C 351.176 68.610,350.135 67.411,349.704 66.947 C 342.115 58.801,341.199 57.885,333.053 50.296 C 332.589 49.865,331.390 48.824,330.387 47.984 C 329.385 47.144,328.311 46.227,328.001 45.947 C 327.692 45.667,326.744 44.909,325.895 44.263 C 325.046 43.616,324.225 42.951,324.070 42.784 C 323.916 42.617,323.095 41.988,322.246 41.387 C 321.396 40.785,320.575 40.152,320.421 39.978 C 320.038 39.548,314.058 35.337,310.456 32.962 C 308.835 31.892,307.467 30.923,307.415 30.807 C 307.364 30.691,307.208 30.596,307.070 30.596 C 306.931 30.596,306.127 30.154,305.282 29.614 C 304.437 29.074,303.669 28.632,303.574 28.632 C 303.479 28.632,302.999 28.347,302.508 27.999 C 301.317 27.157,300.683 26.777,299.509 26.200 C 298.968 25.934,298.084 25.445,297.544 25.113 C 294.485 23.233,287.037 19.480,281.123 16.837 C 278.200 15.531,269.259 11.986,267.509 11.440 C 266.505 11.126,265.558 10.784,265.404 10.679 C 265.249 10.573,264.554 10.319,263.860 10.114 C 263.165 9.908,261.649 9.441,260.491 9.075 C 257.695 8.191,256.123 7.717,254.596 7.297 C 253.902 7.105,252.765 6.788,252.070 6.591 C 250.495 6.145,249.140 5.819,245.053 4.903 C 243.277 4.505,241.067 4.004,240.140 3.791 C 239.214 3.577,237.572 3.265,236.491 3.097 C 235.411 2.929,233.579 2.612,232.421 2.392 C 231.263 2.172,229.179 1.853,227.789 1.683 C 226.400 1.513,224.379 1.253,223.298 1.105 C 218.095 0.390,213.829 0.202,201.123 0.126 C 193.558 0.081,187.179 0.092,186.947 0.151 M236.190 60.377 L 236.921 61.246 236.846 87.630 L 236.772 114.014 235.984 114.691 L 235.197 115.368 199.860 115.368 L 164.523 115.368 163.735 114.691 L 162.947 114.014 162.873 87.630 L 162.799 61.246 163.530 60.377 L 164.260 59.509 199.860 59.509 L 235.459 59.509 236.190 60.377 M168.324 62.829 C 167.056 64.231,168.693 66.029,170.404 65.113 C 171.027 64.780,171.159 63.201,170.611 62.653 C 170.107 62.149,168.852 62.246,168.324 62.829 M173.286 63.050 C 172.573 64.138,173.239 65.263,174.596 65.263 C 175.342 65.263,175.650 65.098,175.973 64.524 C 176.551 63.492,175.818 62.316,174.596 62.316 C 174.012 62.316,173.625 62.532,173.286 63.050 M178.582 62.653 C 178.034 63.201,178.166 64.780,178.789 65.113 C 179.988 65.755,181.333 65.066,181.333 63.811 C 181.333 62.629,179.414 61.821,178.582 62.653 M166.737 90.386 L 166.737 111.439 199.860 111.439 L 232.982 111.439 232.982 90.386 L 232.982 69.333 199.860 69.333 L 166.737 69.333 166.737 90.386 M206.805 77.811 C 207.587 78.460,207.038 79.989,202.912 88.640 C 195.540 104.101,195.554 104.077,193.992 103.101 C 192.381 102.096,192.296 102.359,198.286 89.796 C 204.530 76.702,204.878 76.212,206.805 77.811 M190.592 83.286 C 191.923 84.978,191.260 85.675,186.138 87.966 C 182.823 89.449,182.201 89.817,182.633 90.041 C 182.922 90.191,184.674 90.975,186.526 91.784 C 191.115 93.786,192.040 94.863,190.496 96.407 C 189.466 97.437,189.186 97.369,183.666 94.753 C 177.787 91.967,177.123 91.473,177.123 89.888 C 177.123 88.173,177.702 87.720,183.314 85.038 C 189.025 82.308,189.696 82.147,190.592 83.286 M217.044 84.926 C 222.664 87.553,223.439 88.147,223.439 89.825 C 223.439 91.496,222.676 92.079,217.030 94.718 C 211.491 97.307,211.197 97.389,210.230 96.605 C 208.360 95.091,209.300 93.994,214.451 91.677 L 218.517 89.849 216.557 88.967 C 209.467 85.780,209.047 85.465,209.676 83.812 C 210.360 82.011,211.024 82.111,217.044 84.926 M259.205 149.223 C 259.876 149.481,259.876 162.098,259.205 162.356 C 258.625 162.579,141.095 162.579,140.514 162.356 C 139.923 162.129,139.833 149.476,140.421 149.239 C 140.927 149.035,258.674 149.019,259.205 149.223 M245.022 196.230 C 250.902 197.491,253.954 208.744,254.495 231.158 L 254.672 238.456 253.425 240.865 C 249.864 247.745,239.909 259.852,222.206 278.836 C 218.484 282.828,214.639 286.965,213.661 288.029 L 211.883 289.965 233.492 289.965 L 255.100 289.965 255.942 290.924 C 262.462 298.350,260.065 334.779,252.729 339.764 L 251.659 340.491 200.551 340.491 L 149.443 340.491 148.137 339.663 C 144.200 337.166,141.541 327.859,140.359 312.435 C 139.834 305.580,139.952 302.531,140.809 300.833 C 144.069 294.369,156.707 279.469,181.574 252.772 L 185.234 248.842 165.197 248.702 L 145.159 248.561 144.310 247.748 C 137.383 241.110,141.670 198.565,149.503 196.221 C 150.737 195.852,243.298 195.861,245.022 196.230 " stroke="none" fill="#cc3434" fill-rule="evenodd"></path><path id="path2" d="M162.942 87.439 C 162.942 101.642,162.976 107.494,163.017 100.442 C 163.059 93.391,163.059 81.770,163.017 74.618 C 162.976 67.466,162.942 73.235,162.942 87.439 M236.766 87.439 C 236.766 101.642,236.800 107.494,236.842 100.442 C 236.884 93.391,236.884 81.770,236.842 74.618 C 236.800 67.466,236.766 73.235,236.766 87.439 M166.590 90.386 C 166.590 102.196,166.624 107.028,166.667 101.123 C 166.709 95.218,166.709 85.554,166.667 79.649 C 166.624 73.744,166.590 78.575,166.590 90.386 M233.116 90.386 C 233.116 102.196,233.151 107.028,233.193 101.123 C 233.235 95.218,233.235 85.554,233.193 79.649 C 233.151 73.744,233.116 78.575,233.116 90.386 M177.188 89.825 C 177.188 90.365,177.246 90.586,177.316 90.316 C 177.387 90.046,177.387 89.604,177.316 89.333 C 177.246 89.063,177.188 89.284,177.188 89.825 M170.316 149.263 C 186.565 149.303,213.154 149.303,229.404 149.263 C 245.653 149.223,232.358 149.190,199.860 149.190 C 167.361 149.190,154.067 149.223,170.316 149.263 M170.316 162.456 C 186.565 162.496,213.154 162.496,229.404 162.456 C 245.653 162.416,232.358 162.383,199.860 162.383 C 167.361 162.383,154.067 162.416,170.316 162.456 M254.106 224.982 C 254.109 225.600,254.166 225.820,254.234 225.470 C 254.301 225.121,254.298 224.616,254.228 224.348 C 254.158 224.079,254.103 224.365,254.106 224.982 M140.996 227.368 C 140.996 228.218,141.049 228.565,141.113 228.140 C 141.178 227.716,141.178 227.021,141.113 226.596 C 141.049 226.172,140.996 226.519,140.996 227.368 M254.423 234.807 C 254.424 236.660,254.469 237.381,254.524 236.410 C 254.579 235.439,254.578 233.923,254.523 233.042 C 254.467 232.160,254.422 232.954,254.423 234.807 M140.993 234.246 C 140.995 235.018,141.049 235.300,141.114 234.873 C 141.178 234.447,141.177 233.815,141.110 233.470 C 141.043 233.125,140.990 233.474,140.993 234.246 M155.880 248.631 C 161.411 248.674,170.379 248.674,175.810 248.631 C 181.241 248.589,176.716 248.554,165.754 248.554 C 154.793 248.554,150.350 248.589,155.880 248.631 M182.579 251.860 L 181.754 252.772 182.667 251.947 C 183.168 251.494,183.579 251.084,183.579 251.035 C 183.579 250.818,183.347 251.009,182.579 251.860 M178.511 256.211 L 177.544 257.263 178.596 256.296 C 179.576 255.395,179.778 255.158,179.564 255.158 C 179.517 255.158,179.043 255.632,178.511 256.211 M174.719 260.281 L 173.895 261.193 174.807 260.369 C 175.309 259.915,175.719 259.505,175.719 259.456 C 175.719 259.239,175.488 259.430,174.719 260.281 M219.631 281.333 L 218.807 282.246 219.719 281.421 C 220.221 280.968,220.632 280.557,220.632 280.509 C 220.632 280.292,220.400 280.483,219.631 281.333 M215.145 286.105 L 214.035 287.298 215.228 286.189 C 216.338 285.157,216.550 284.912,216.338 284.912 C 216.292 284.912,215.755 285.449,215.145 286.105 M140.173 305.263 C 140.173 306.807,140.221 307.403,140.277 306.587 C 140.334 305.771,140.334 304.508,140.276 303.780 C 140.219 303.052,140.172 303.719,140.173 305.263 M259.481 312.421 C 259.481 314.814,259.524 315.793,259.577 314.596 C 259.630 313.400,259.630 311.442,259.577 310.246 C 259.524 309.049,259.481 310.028,259.481 312.421 " stroke="none" fill="#da7573" fill-rule="evenodd"></path><path id="path3" d="M182.246 59.719 C 191.933 59.760,207.786 59.760,217.474 59.719 C 227.161 59.678,219.235 59.645,199.860 59.645 C 180.484 59.645,172.558 59.678,182.246 59.719 M167.579 64.528 C 167.579 64.802,168.670 65.823,168.788 65.659 C 168.833 65.596,168.580 65.264,168.225 64.922 C 167.870 64.580,167.579 64.403,167.579 64.528 M180.852 65.038 C 180.510 65.394,180.333 65.684,180.458 65.684 C 180.731 65.684,181.753 64.593,181.589 64.475 C 181.526 64.430,181.194 64.683,180.852 65.038 M183.228 68.982 C 192.375 69.023,207.344 69.023,216.491 68.982 C 225.639 68.941,218.154 68.908,199.860 68.908 C 181.565 68.908,174.081 68.941,183.228 68.982 M204.315 77.965 C 203.980 78.392,203.985 78.414,204.351 78.132 C 204.582 77.954,205.088 77.750,205.474 77.679 L 206.175 77.550 205.438 77.512 C 205.031 77.491,204.527 77.694,204.315 77.965 M201.454 83.522 C 200.794 84.905,200.887 85.140,201.577 83.833 C 201.890 83.240,202.096 82.704,202.036 82.644 C 201.975 82.583,201.713 82.978,201.454 83.522 M187.509 83.228 C 187.123 83.449,186.933 83.629,187.088 83.629 C 187.242 83.629,187.684 83.449,188.070 83.228 C 188.456 83.007,188.646 82.827,188.491 82.827 C 188.337 82.827,187.895 83.007,187.509 83.228 M210.126 83.345 C 209.844 83.657,209.692 84.159,209.764 84.538 C 209.878 85.140,209.892 85.132,209.927 84.437 C 209.948 84.006,210.233 83.493,210.589 83.244 C 210.932 83.004,211.078 82.807,210.913 82.807 C 210.748 82.807,210.394 83.049,210.126 83.345 M190.563 84.272 C 190.692 85.051,190.732 85.091,190.820 84.529 C 190.878 84.164,190.809 83.749,190.668 83.608 C 190.512 83.452,190.471 83.714,190.563 84.272 M203.699 86.048 C 203.040 87.431,203.133 87.666,203.822 86.359 C 204.135 85.766,204.342 85.231,204.281 85.170 C 204.220 85.109,203.959 85.504,203.699 86.048 M217.544 85.614 C 218.084 85.910,218.653 86.152,218.807 86.152 C 218.961 86.152,218.646 85.910,218.105 85.614 C 217.565 85.318,216.996 85.076,216.842 85.076 C 216.688 85.076,217.004 85.318,217.544 85.614 M182.175 85.754 C 181.789 85.975,181.600 86.156,181.754 86.156 C 181.909 86.156,182.351 85.975,182.737 85.754 C 183.123 85.534,183.312 85.353,183.158 85.353 C 183.004 85.353,182.561 85.534,182.175 85.754 M189.614 85.914 C 189.151 86.210,188.916 86.454,189.092 86.455 C 189.268 86.455,189.710 86.208,190.074 85.904 C 190.909 85.209,190.708 85.213,189.614 85.914 M211.649 86.596 C 212.035 86.817,212.477 86.998,212.632 86.998 C 212.786 86.998,212.596 86.817,212.211 86.596 C 211.825 86.376,211.382 86.195,211.228 86.195 C 211.074 86.195,211.263 86.376,211.649 86.596 M198.366 89.978 C 197.707 91.361,197.799 91.596,198.489 90.289 C 198.802 89.696,199.008 89.161,198.948 89.100 C 198.887 89.039,198.625 89.434,198.366 89.978 M200.612 92.504 C 199.952 93.887,200.045 94.122,200.734 92.816 C 201.048 92.222,201.254 91.687,201.193 91.626 C 201.133 91.565,200.871 91.961,200.612 92.504 M181.614 93.614 C 182.000 93.835,182.442 94.015,182.596 94.015 C 182.751 94.015,182.561 93.835,182.175 93.614 C 181.789 93.393,181.347 93.213,181.193 93.213 C 181.039 93.213,181.228 93.393,181.614 93.614 M210.487 93.771 L 209.825 94.349 210.667 93.856 C 211.775 93.207,211.791 93.193,211.446 93.193 C 211.283 93.193,210.852 93.453,210.487 93.771 M218.105 93.754 C 217.565 94.050,217.249 94.292,217.404 94.292 C 217.558 94.292,218.126 94.050,218.667 93.754 C 219.207 93.459,219.523 93.217,219.368 93.217 C 219.214 93.217,218.646 93.459,218.105 93.754 M190.635 95.212 C 190.613 95.643,190.328 96.156,189.973 96.405 C 189.630 96.645,189.484 96.842,189.648 96.842 C 190.215 96.842,190.924 95.774,190.798 95.111 C 190.683 94.509,190.670 94.517,190.635 95.212 M195.278 96.434 C 194.619 97.817,194.712 98.052,195.401 96.745 C 195.714 96.152,195.921 95.617,195.860 95.556 C 195.799 95.495,195.538 95.890,195.278 96.434 M186.947 96.140 C 187.333 96.361,187.775 96.542,187.930 96.542 C 188.084 96.542,187.895 96.361,187.509 96.140 C 187.123 95.920,186.681 95.739,186.526 95.739 C 186.372 95.739,186.561 95.920,186.947 96.140 M212.491 96.421 C 212.105 96.642,211.916 96.822,212.070 96.822 C 212.225 96.822,212.667 96.642,213.053 96.421 C 213.439 96.200,213.628 96.020,213.474 96.020 C 213.319 96.020,212.877 96.200,212.491 96.421 M197.524 98.960 C 196.865 100.343,196.957 100.579,197.647 99.272 C 197.960 98.678,198.166 98.143,198.106 98.082 C 198.045 98.022,197.783 98.417,197.524 98.960 M193.123 101.457 C 193.123 101.834,193.226 102.206,193.353 102.284 C 193.479 102.363,193.528 102.054,193.461 101.599 C 193.314 100.596,193.123 100.516,193.123 101.457 M183.088 111.930 C 192.312 111.971,207.407 111.971,216.632 111.930 C 225.856 111.889,218.309 111.855,199.860 111.855 C 181.411 111.855,173.863 111.889,183.088 111.930 M182.386 115.298 C 191.996 115.339,207.723 115.339,217.333 115.298 C 226.944 115.257,219.081 115.224,199.860 115.224 C 180.639 115.224,172.775 115.257,182.386 115.298 M140.189 155.789 C 140.189 159.109,140.230 160.467,140.280 158.807 C 140.329 157.147,140.329 154.432,140.280 152.772 C 140.230 151.112,140.189 152.470,140.189 155.789 M259.488 155.789 C 259.488 159.109,259.528 160.467,259.578 158.807 C 259.628 157.147,259.628 154.432,259.578 152.772 C 259.528 151.112,259.488 152.470,259.488 155.789 M173.404 196.421 C 186.565 196.461,208.102 196.461,221.263 196.421 C 234.425 196.381,223.656 196.348,197.333 196.348 C 171.011 196.348,160.242 196.381,173.404 196.421 M147.772 197.684 L 146.947 198.596 147.860 197.772 C 148.710 197.004,148.901 196.772,148.684 196.772 C 148.636 196.772,148.225 197.182,147.772 197.684 M247.579 198.035 C 248.103 198.575,248.594 199.018,248.672 199.018 C 248.749 199.018,248.383 198.575,247.860 198.035 C 247.336 197.495,246.844 197.053,246.767 197.053 C 246.690 197.053,247.055 197.495,247.579 198.035 M253.258 215.860 C 253.258 216.400,253.316 216.621,253.386 216.351 C 253.457 216.081,253.457 215.639,253.386 215.368 C 253.316 215.098,253.258 215.319,253.258 215.860 M141.820 217.825 C 141.820 218.365,141.877 218.586,141.948 218.316 C 142.018 218.046,142.018 217.604,141.948 217.333 C 141.877 217.063,141.820 217.284,141.820 217.825 M253.544 218.807 C 253.548 219.425,253.605 219.644,253.672 219.295 C 253.739 218.946,253.737 218.441,253.667 218.172 C 253.596 217.904,253.541 218.189,253.544 218.807 M141.544 220.491 C 141.548 221.109,141.605 221.328,141.672 220.979 C 141.739 220.630,141.737 220.125,141.667 219.856 C 141.596 219.588,141.541 219.874,141.544 220.491 M253.839 222.596 C 253.839 223.446,253.891 223.793,253.955 223.368 C 254.020 222.944,254.020 222.249,253.955 221.825 C 253.891 221.400,253.839 221.747,253.839 222.596 M141.280 224.140 C 141.282 225.067,141.334 225.412,141.396 224.907 C 141.459 224.403,141.458 223.645,141.394 223.223 C 141.330 222.801,141.278 223.214,141.280 224.140 M254.139 228.772 C 254.139 230.393,254.185 231.056,254.242 230.246 C 254.299 229.435,254.299 228.109,254.242 227.298 C 254.185 226.488,254.139 227.151,254.139 228.772 M141.009 230.877 C 141.010 232.112,141.059 232.583,141.118 231.922 C 141.177 231.262,141.177 230.252,141.116 229.677 C 141.056 229.102,141.007 229.642,141.009 230.877 M141.273 236.772 C 141.275 237.544,141.330 237.826,141.394 237.400 C 141.459 236.973,141.457 236.341,141.391 235.996 C 141.324 235.651,141.271 236.000,141.273 236.772 M253.250 240.427 C 252.914 241.119,252.698 241.684,252.770 241.684 C 252.960 241.684,254.094 239.404,253.967 239.277 C 253.908 239.218,253.585 239.736,253.250 240.427 M184.577 249.807 L 183.470 251.088 184.704 249.904 C 185.382 249.254,185.880 248.677,185.811 248.623 C 185.741 248.570,185.186 249.102,184.577 249.807 M180.902 253.825 L 179.509 255.298 180.982 253.905 C 181.793 253.139,182.456 252.476,182.456 252.432 C 182.456 252.222,182.196 252.455,180.902 253.825 M176.972 258.035 L 175.579 259.509 177.053 258.116 C 177.863 257.350,178.526 256.687,178.526 256.642 C 178.526 256.433,178.266 256.666,176.972 258.035 M173.474 261.754 C 172.792 262.449,172.297 263.018,172.374 263.018 C 172.452 263.018,173.073 262.449,173.754 261.754 C 174.436 261.060,174.931 260.491,174.854 260.491 C 174.777 260.491,174.156 261.060,173.474 261.754 M237.035 261.965 L 236.211 262.877 237.123 262.053 C 237.625 261.599,238.035 261.189,238.035 261.140 C 238.035 260.924,237.803 261.115,237.035 261.965 M235.070 264.211 L 234.246 265.123 235.158 264.298 C 235.660 263.845,236.070 263.434,236.070 263.386 C 236.070 263.169,235.839 263.360,235.070 264.211 M170.513 265.053 L 169.404 266.246 170.596 265.136 C 171.706 264.104,171.918 263.860,171.706 263.860 C 171.660 263.860,171.123 264.396,170.513 265.053 M232.967 266.596 L 232.000 267.649 233.053 266.682 C 234.032 265.781,234.234 265.544,234.020 265.544 C 233.973 265.544,233.499 266.018,232.967 266.596 M167.425 268.421 L 166.316 269.614 167.509 268.504 C 168.618 267.473,168.831 267.228,168.618 267.228 C 168.573 267.228,168.036 267.765,167.425 268.421 M230.441 269.404 L 229.474 270.456 230.526 269.489 C 231.506 268.588,231.708 268.351,231.494 268.351 C 231.447 268.351,230.973 268.825,230.441 269.404 M164.757 271.368 L 163.789 272.421 164.842 271.454 C 165.822 270.553,166.024 270.316,165.809 270.316 C 165.763 270.316,165.289 270.789,164.757 271.368 M227.776 272.351 L 226.667 273.544 227.860 272.434 C 228.969 271.402,229.182 271.158,228.969 271.158 C 228.923 271.158,228.387 271.695,227.776 272.351 M162.231 274.175 L 161.263 275.228 162.316 274.261 C 163.296 273.360,163.497 273.123,163.283 273.123 C 163.236 273.123,162.763 273.596,162.231 274.175 M224.691 275.719 L 223.298 277.193 224.772 275.800 C 226.141 274.506,226.374 274.246,226.165 274.246 C 226.120 274.246,225.457 274.909,224.691 275.719 M160.123 276.561 L 159.298 277.474 160.211 276.649 C 160.712 276.196,161.123 275.785,161.123 275.737 C 161.123 275.520,160.891 275.711,160.123 276.561 M221.183 279.509 L 219.649 281.123 221.263 279.589 C 222.763 278.163,223.006 277.895,222.797 277.895 C 222.754 277.895,222.027 278.621,221.183 279.509 M157.877 279.088 L 157.053 280.000 157.965 279.176 C 158.815 278.407,159.006 278.175,158.789 278.175 C 158.741 278.175,158.331 278.586,157.877 279.088 M216.974 284.000 L 215.158 285.895 217.053 284.078 C 218.095 283.079,218.947 282.227,218.947 282.184 C 218.947 281.977,218.662 282.240,216.974 284.000 M212.691 288.501 C 211.964 289.240,211.368 289.934,211.368 290.045 C 211.368 290.155,221.126 290.215,233.053 290.177 L 254.737 290.109 233.135 290.035 L 211.533 289.961 212.914 288.560 C 213.673 287.789,214.232 287.158,214.154 287.158 C 214.077 287.158,213.419 287.762,212.691 288.501 M258.878 302.456 C 258.881 303.074,258.938 303.293,259.006 302.944 C 259.073 302.595,259.070 302.090,259.000 301.821 C 258.930 301.553,258.875 301.839,258.878 302.456 M259.178 306.246 C 259.178 307.249,259.229 307.660,259.291 307.158 C 259.353 306.656,259.353 305.835,259.291 305.333 C 259.229 304.832,259.178 305.242,259.178 306.246 M140.445 309.895 C 140.445 311.053,140.495 311.526,140.555 310.947 C 140.616 310.368,140.616 309.421,140.555 308.842 C 140.495 308.263,140.445 308.737,140.445 309.895 M140.708 314.386 C 140.708 315.081,140.763 315.365,140.830 315.018 C 140.897 314.670,140.897 314.102,140.830 313.754 C 140.763 313.407,140.708 313.691,140.708 314.386 M140.977 317.193 C 140.977 317.733,141.035 317.954,141.106 317.684 C 141.176 317.414,141.176 316.972,141.106 316.702 C 141.035 316.432,140.977 316.653,140.977 317.193 M259.175 318.175 C 259.176 319.102,259.229 319.447,259.291 318.942 C 259.354 318.438,259.352 317.680,259.288 317.258 C 259.224 316.836,259.173 317.249,259.175 318.175 M258.872 321.684 C 258.872 322.225,258.930 322.446,259.001 322.175 C 259.071 321.905,259.071 321.463,259.001 321.193 C 258.930 320.923,258.872 321.144,258.872 321.684 M253.316 338.877 L 252.491 339.789 253.404 338.965 C 253.905 338.512,254.316 338.101,254.316 338.053 C 254.316 337.836,254.084 338.027,253.316 338.877 M175.368 340.421 C 189.302 340.461,212.102 340.461,226.035 340.421 C 239.968 340.381,228.568 340.348,200.702 340.348 C 172.835 340.348,161.435 340.381,175.368 340.421 " stroke="none" fill="#e49494" fill-rule="evenodd"></path><path id="path4" d="M183.228 69.263 C 192.375 69.304,207.344 69.304,216.491 69.263 C 225.639 69.222,218.154 69.188,199.860 69.188 C 181.565 69.188,174.081 69.222,183.228 69.263 M183.228 111.649 C 192.375 111.690,207.344 111.690,216.491 111.649 C 225.639 111.608,218.154 111.574,199.860 111.574 C 181.565 111.574,174.081 111.608,183.228 111.649 M173.706 196.140 C 186.726 196.181,207.947 196.181,220.864 196.140 C 233.782 196.100,223.130 196.067,197.193 196.067 C 171.256 196.067,160.687 196.100,173.706 196.140 M140.983 224.982 C 140.986 225.600,141.044 225.820,141.111 225.470 C 141.178 225.121,141.175 224.616,141.105 224.348 C 141.035 224.079,140.980 224.365,140.983 224.982 M254.403 230.035 C 254.404 230.961,254.457 231.307,254.519 230.802 C 254.582 230.297,254.580 229.540,254.516 229.118 C 254.452 228.696,254.401 229.109,254.403 230.035 M184.267 249.895 L 183.158 251.088 184.351 249.978 C 185.460 248.946,185.673 248.702,185.460 248.702 C 185.415 248.702,184.878 249.239,184.267 249.895 M180.491 253.895 C 179.809 254.589,179.315 255.158,179.392 255.158 C 179.469 255.158,180.090 254.589,180.772 253.895 C 181.454 253.200,181.948 252.632,181.871 252.632 C 181.794 252.632,181.173 253.200,180.491 253.895 M176.408 258.316 L 175.298 259.509 176.491 258.399 C 177.601 257.367,177.813 257.123,177.601 257.123 C 177.555 257.123,177.018 257.660,176.408 258.316 M173.035 261.965 L 172.211 262.877 173.123 262.053 C 173.625 261.599,174.035 261.189,174.035 261.140 C 174.035 260.924,173.803 261.115,173.035 261.965 M170.090 265.193 L 169.123 266.246 170.175 265.278 C 171.155 264.378,171.357 264.140,171.143 264.140 C 171.096 264.140,170.622 264.614,170.090 265.193 M167.140 268.421 L 166.316 269.333 167.228 268.509 C 167.730 268.055,168.140 267.645,168.140 267.597 C 168.140 267.380,167.909 267.571,167.140 268.421 M164.333 271.509 L 163.509 272.421 164.421 271.597 C 164.923 271.143,165.333 270.733,165.333 270.684 C 165.333 270.467,165.102 270.658,164.333 271.509 M228.195 272.211 L 227.228 273.263 228.281 272.296 C 229.260 271.395,229.462 271.158,229.248 271.158 C 229.201 271.158,228.727 271.632,228.195 272.211 M225.108 275.579 L 224.140 276.632 225.193 275.664 C 226.173 274.764,226.375 274.526,226.160 274.526 C 226.113 274.526,225.640 275.000,225.108 275.579 M221.601 279.368 L 220.491 280.561 221.684 279.452 C 222.340 278.842,222.877 278.305,222.877 278.259 C 222.877 278.046,222.633 278.259,221.601 279.368 M217.544 283.649 C 216.862 284.344,216.367 284.912,216.445 284.912 C 216.522 284.912,217.143 284.344,217.825 283.649 C 218.506 282.954,219.001 282.386,218.924 282.386 C 218.847 282.386,218.226 282.954,217.544 283.649 M212.772 288.702 C 212.090 289.396,211.595 289.965,211.673 289.965 C 211.750 289.965,212.371 289.396,213.053 288.702 C 213.734 288.007,214.229 287.439,214.152 287.439 C 214.075 287.439,213.454 288.007,212.772 288.702 M259.439 307.228 C 259.442 307.846,259.500 308.065,259.567 307.716 C 259.634 307.367,259.632 306.862,259.561 306.593 C 259.491 306.325,259.436 306.611,259.439 307.228 M140.147 309.053 C 140.147 309.747,140.201 310.032,140.268 309.684 C 140.335 309.337,140.335 308.768,140.268 308.421 C 140.201 308.074,140.147 308.358,140.147 309.053 M259.434 317.474 C 259.434 318.014,259.491 318.235,259.562 317.965 C 259.633 317.695,259.633 317.253,259.562 316.982 C 259.491 316.712,259.434 316.933,259.434 317.474 " stroke="none" fill="#d45150" fill-rule="evenodd"></path></g></svg>